<svg xmlns="http://www.w3.org/2000/svg" xmlns:xlink="http://www.w3.org/1999/xlink" version="1.1" baseProfile="full" style="width: 600px; height: 480px;" width="600" height="480"><g><rect width="600" height="480" x="0" y="0" id="0" fill="none" fill-opacity="1"></rect></g><g><path d="M 60 410.5 L 540 410.5" fill="none" stroke="#E0E6F1" stroke-width="1" paint-order="fill" stroke-opacity="1" stroke-dasharray="none" stroke-linecap="butt" stroke-miterlimit="10"></path><path d="M 60 340.5 L 540 340.5" fill="none" stroke="#E0E6F1" stroke-width="1" paint-order="fill" stroke-opacity="1" stroke-dasharray="none" stroke-linecap="butt" stroke-miterlimit="10"></path><path d="M 60 270.5 L 540 270.5" fill="none" stroke="#E0E6F1" stroke-width="1" paint-order="fill" stroke-opacity="1" stroke-dasharray="none" stroke-linecap="butt" stroke-miterlimit="10"></path><path d="M 60 200.5 L 540 200.5" fill="none" stroke="#E0E6F1" stroke-width="1" paint-order="fill" stroke-opacity="1" stroke-dasharray="none" stroke-linecap="butt" stroke-miterlimit="10"></path><path d="M 60 130.5 L 540 130.5" fill="none" stroke="#E0E6F1" stroke-width="1" paint-order="fill" stroke-opacity="1" stroke-dasharray="none" stroke-linecap="butt" stroke-miterlimit="10"></path><path d="M 60 60.5 L 540 60.5" fill="none" stroke="#E0E6F1" stroke-width="1" paint-order="fill" stroke-opacity="1" stroke-dasharray="none" stroke-linecap="butt" stroke-miterlimit="10"></path><path d="M 60 410.5 L 540 410.5" fill="none" stroke="#6E7079" stroke-width="1" paint-order="fill" stroke-opacity="1" stroke-dasharray="none" stroke-linecap="round" stroke-miterlimit="10"></path><path d="M 60.5 410 L 60.5 415" fill="none" stroke="#6E7079" stroke-width="1" paint-order="fill" stroke-opacity="1" stroke-dasharray="none" stroke-linecap="butt" stroke-miterlimit="10"></path><path d="M 300.5 410 L 300.5 415" fill="none" stroke="#6E7079" stroke-width="1" paint-order="fill" stroke-opacity="1" stroke-dasharray="none" stroke-linecap="butt" stroke-miterlimit="10"></path><path d="M 540.5 410 L 540.5 415" fill="none" stroke="#6E7079" stroke-width="1" paint-order="fill" stroke-opacity="1" stroke-dasharray="none" stroke-linecap="butt" stroke-miterlimit="10"></path><text xml:space="preserve" style="font: sans-serif 12px normal normal normal 12px;" fill="#6E7079" fill-opacity="1" stroke="none" transform="matrix(1,0,0,1,52,410)" dominant-baseline="central" text-anchor="end" x="0" y="0">0</text><text xml:space="preserve" style="font: sans-serif 12px normal normal normal 12px;" fill="#6E7079" fill-opacity="1" stroke="none" transform="matrix(1,0,0,1,52,340)" dominant-baseline="central" text-anchor="end" x="0" y="0">10</text><text xml:space="preserve" style="font: sans-serif 12px normal normal normal 12px;" fill="#6E7079" fill-opacity="1" stroke="none" transform="matrix(1,0,0,1,52,270)" dominant-baseline="central" text-anchor="end" x="0" y="0">20</text><text xml:space="preserve" style="font: sans-serif 12px normal normal normal 12px;" fill="#6E7079" fill-opacity="1" stroke="none" transform="matrix(1,0,0,1,52,200)" dominant-baseline="central" text-anchor="end" x="0" y="0">30</text><text xml:space="preserve" style="font: sans-serif 12px normal normal normal 12px;" fill="#6E7079" fill-opacity="1" stroke="none" transform="matrix(1,0,0,1,52,130)" dominant-baseline="central" text-anchor="end" x="0" y="0">40</text><text xml:space="preserve" style="font: sans-serif 12px normal normal normal 12px;" fill="#6E7079" fill-opacity="1" stroke="none" transform="matrix(1,0,0,1,52,60)" dominant-baseline="central" text-anchor="end" x="0" y="0">50</text><text xml:space="preserve" style="font: sans-serif 12px normal normal normal 12px;" fill="#6E7079" fill-opacity="1" stroke="none" transform="matrix(1,0,0,1,120,418)" dominant-baseline="central" text-anchor="middle" x="0" y="12">2017-10-24</text><text xml:space="preserve" style="font: sans-serif 12px normal normal normal 12px;" fill="#6E7079" fill-opacity="1" stroke="none" transform="matrix(1,0,0,1,360,418)" dominant-baseline="central" text-anchor="middle" x="0" y="12">2017-10-26</text><path d="M 90.5 172 L 149.5 172 L 149.5 270 L 90.5 270 Z M 119.5 144 L 119.5 172 M 119.5 340 L 119.5 270" fill="rgb(0,218,60)" fill-opacity="0.3" stroke="rgb(0,218,60)" stroke-width="1" paint-order="fill" stroke-opacity="1" stroke-dasharray="none" stroke-linecap="butt" stroke-miterlimit="10"></path><path d="M 210.5 130 L 269.5 130 L 269.5 165 L 210.5 165 Z M 239.5 60 L 239.5 130 M 239.5 200 L 239.5 165" fill="rgb(236,0,0)" fill-opacity="0.3" stroke="rgb(236,0,0)" stroke-width="1" paint-order="fill" stroke-opacity="1" stroke-dasharray="none" stroke-linecap="butt" stroke-miterlimit="10"></path><path d="M 330.5 144 L 389.5 144 L 389.5 179 L 330.5 179 Z M 359.5 102 L 359.5 144 M 359.5 193 L 359.5 179" fill="rgb(0,218,60)" fill-opacity="0.3" stroke="rgb(0,218,60)" stroke-width="1" paint-order="fill" stroke-opacity="1" stroke-dasharray="none" stroke-linecap="butt" stroke-miterlimit="10"></path><path d="M 450.5 144 L 509.5 144 L 509.5 305 L 450.5 305 Z M 479.5 116 L 479.5 144 M 479.5 375 L 479.5 305" fill="rgb(236,0,0)" fill-opacity="0.3" stroke="rgb(236,0,0)" stroke-width="1" paint-order="fill" stroke-opacity="1" stroke-dasharray="none" stroke-linecap="butt" stroke-miterlimit="10"></path><path d="M -104 -5 L 104 -5 L 104 41 L -104 41 L -104 -5 Z" fill="rgb(0,0,0)" fill-opacity="0" stroke="#ccc" stroke-width="0" paint-order="fill" stroke-opacity="1" stroke-dasharray="none" stroke-linecap="butt" stroke-miterlimit="10" transform="matrix(1,0,0,1,300,5)"></path><text xml:space="preserve" style="font: sans-serif 18px normal normal bold 18px;" fill="#464646" fill-opacity="1" stroke="none" transform="matrix(1,0,0,1,300,5)" dominant-baseline="central" text-anchor="middle" x="0" y="18">BOCO Crypto</text></g></svg>