<svg xmlns="http://www.w3.org/2000/svg" xmlns:xlink="http://www.w3.org/1999/xlink" version="1.1" baseProfile="full" style="width: 600px; height: 480px;" width="600" height="480"><g><rect width="600" height="480" x="0" y="0" id="0" fill="none" fill-opacity="1"></rect></g><g><path d="M 60 410.5 L 540 410.5" fill="none" stroke="#E0E6F1" stroke-width="1" paint-order="fill" stroke-opacity="1" stroke-dasharray="none" stroke-linecap="butt" stroke-miterlimit="10"></path><path d="M 60 322.5 L 540 322.5" fill="none" stroke="#E0E6F1" stroke-width="1" paint-order="fill" stroke-opacity="1" stroke-dasharray="none" stroke-linecap="butt" stroke-miterlimit="10"></path><path d="M 60 235.5 L 540 235.5" fill="none" stroke="#E0E6F1" stroke-width="1" paint-order="fill" stroke-opacity="1" stroke-dasharray="none" stroke-linecap="butt" stroke-miterlimit="10"></path><path d="M 60 147.5 L 540 147.5" fill="none" stroke="#E0E6F1" stroke-width="1" paint-order="fill" stroke-opacity="1" stroke-dasharray="none" stroke-linecap="butt" stroke-miterlimit="10"></path><path d="M 60 60.5 L 540 60.5" fill="none" stroke="#E0E6F1" stroke-width="1" paint-order="fill" stroke-opacity="1" stroke-dasharray="none" stroke-linecap="butt" stroke-miterlimit="10"></path><path d="M 60 410.5 L 540 410.5" fill="none" stroke="#6E7079" stroke-width="1" paint-order="fill" stroke-opacity="1" stroke-dasharray="none" stroke-linecap="round" stroke-miterlimit="10"></path><path d="M 60.5 410 L 60.5 415" fill="none" stroke="#6E7079" stroke-width="1" paint-order="fill" stroke-opacity="1" stroke-dasharray="none" stroke-linecap="butt" stroke-miterlimit="10"></path><path d="M 185.5 410 L 185.5 415" fill="none" stroke="#6E7079" stroke-width="1" paint-order="fill" stroke-opacity="1" stroke-dasharray="none" stroke-linecap="butt" stroke-miterlimit="10"></path><path d="M 310.5 410 L 310.5 415" fill="none" stroke="#6E7079" stroke-width="1" paint-order="fill" stroke-opacity="1" stroke-dasharray="none" stroke-linecap="butt" stroke-miterlimit="10"></path><path d="M 435.5 410 L 435.5 415" fill="none" stroke="#6E7079" stroke-width="1" paint-order="fill" stroke-opacity="1" stroke-dasharray="none" stroke-linecap="butt" stroke-miterlimit="10"></path><path d="M 540.5 410 L 540.5 415" fill="none" stroke="#6E7079" stroke-width="1" paint-order="fill" stroke-opacity="1" stroke-dasharray="none" stroke-linecap="butt" stroke-miterlimit="10"></path><text xml:space="preserve" style="font: sans-serif 12px normal normal normal 12px;" fill="#6E7079" fill-opacity="1" stroke="none" transform="matrix(1,0,0,1,52,410)" dominant-baseline="central" text-anchor="end" x="0" y="0">54,000</text><text xml:space="preserve" style="font: sans-serif 12px normal normal normal 12px;" fill="#6E7079" fill-opacity="1" stroke="none" transform="matrix(1,0,0,1,52,322.5)" dominant-baseline="central" text-anchor="end" x="0" y="0">55,000</text><text xml:space="preserve" style="font: sans-serif 12px normal normal normal 12px;" fill="#6E7079" fill-opacity="1" stroke="none" transform="matrix(1,0,0,1,52,235)" dominant-baseline="central" text-anchor="end" x="0" y="0">56,000</text><text xml:space="preserve" style="font: sans-serif 12px normal normal normal 12px;" fill="#6E7079" fill-opacity="1" stroke="none" transform="matrix(1,0,0,1,52,147.5)" dominant-baseline="central" text-anchor="end" x="0" y="0">57,000</text><text xml:space="preserve" style="font: sans-serif 12px normal normal normal 12px;" fill="#6E7079" fill-opacity="1" stroke="none" transform="matrix(1,0,0,1,52,60)" dominant-baseline="central" text-anchor="end" x="0" y="0">58,000</text><text xml:space="preserve" style="font: sans-serif 12px normal normal normal 12px;" fill="#6E7079" fill-opacity="1" stroke="none" transform="matrix(1,0,0,1,62.5,418)" dominant-baseline="central" text-anchor="middle" x="0" y="12">3:45 pm</text><text xml:space="preserve" style="font: sans-serif 12px normal normal normal 12px;" fill="#6E7079" fill-opacity="1" stroke="none" transform="matrix(1,0,0,1,187.5,418)" dominant-baseline="central" text-anchor="middle" x="0" y="12">10:00 pm</text><text xml:space="preserve" style="font: sans-serif 12px normal normal normal 12px;" fill="#6E7079" fill-opacity="1" stroke="none" transform="matrix(1,0,0,1,312.5,418)" dominant-baseline="central" text-anchor="middle" x="0" y="12">4:15 am</text><text xml:space="preserve" style="font: sans-serif 12px normal normal normal 12px;" fill="#6E7079" fill-opacity="1" stroke="none" transform="matrix(1,0,0,1,437.5,418)" dominant-baseline="central" text-anchor="middle" x="0" y="12">10:30 am</text><path d="M 61.5 279.1105 L 63.5 279.1105 L 63.5 284.8925 L 61.5 284.8925 Z M 62.5 270.3797 L 62.5 279.1105 M 62.5 304.1302 L 62.5 284.8925" fill="rgb(236,0,0)" fill-opacity="0.3" stroke="rgb(236,0,0)" stroke-width="1" paint-order="fill" stroke-opacity="1" stroke-dasharray="none" stroke-linecap="butt" stroke-miterlimit="10"></path><path d="M 66.5 284.8925 L 68.5 284.8925 L 68.5 340.4506 L 66.5 340.4506 Z M 67.5 283.748 L 67.5 284.8925 M 67.5 340.7 L 67.5 340.4506" fill="rgb(236,0,0)" fill-opacity="0.3" stroke="rgb(236,0,0)" stroke-width="1" paint-order="fill" stroke-opacity="1" stroke-dasharray="none" stroke-linecap="butt" stroke-miterlimit="10"></path><path d="M 71.5 340.4506 L 73.5 340.4506 L 73.5 346.2125 L 71.5 346.2125 Z M 72.5 335.5664 L 72.5 340.4506 M 72.5 375 L 72.5 346.2125" fill="rgb(236,0,0)" fill-opacity="0.3" stroke="rgb(236,0,0)" stroke-width="1" paint-order="fill" stroke-opacity="1" stroke-dasharray="none" stroke-linecap="butt" stroke-miterlimit="10"></path><path d="M 76.5 335.2251 L 78.5 335.2251 L 78.5 346.8355 L 76.5 346.8355 Z M 77.5 325.125 L 77.5 335.2251 M 77.5 347.3859 L 77.5 346.8355" fill="rgb(0,218,60)" fill-opacity="0.3" stroke="rgb(0,218,60)" stroke-width="1" paint-order="fill" stroke-opacity="1" stroke-dasharray="none" stroke-linecap="butt" stroke-miterlimit="10"></path><path d="M 81.5 334.5138 L 83.5 334.5138 L 83.5 339.9064 L 81.5 339.9064 Z M 82.5 323.5911 L 82.5 334.5138 M 82.5 340.7 L 82.5 339.9064" fill="rgb(236,0,0)" fill-opacity="0.3" stroke="rgb(236,0,0)" stroke-width="1" paint-order="fill" stroke-opacity="1" stroke-dasharray="none" stroke-linecap="butt" stroke-miterlimit="10"></path><path d="M 86.5 339.9064 L 88.5 339.9064 L 88.5 341.4026 L 86.5 341.4026 Z M 87.5 333.7753 L 87.5 339.9064 M 87.5 357.5 L 87.5 341.4026" fill="rgb(236,0,0)" fill-opacity="0.3" stroke="rgb(236,0,0)" stroke-width="1" paint-order="fill" stroke-opacity="1" stroke-dasharray="none" stroke-linecap="butt" stroke-miterlimit="10"></path><path d="M 91.5 341.4035 L 93.5 341.4035 L 93.5 343.3259 L 91.5 343.3259 Z M 92.5 333.3929 L 92.5 341.4035 M 92.5 350.4142 L 92.5 343.3259" fill="rgb(236,0,0)" fill-opacity="0.3" stroke="rgb(236,0,0)" stroke-width="1" paint-order="fill" stroke-opacity="1" stroke-dasharray="none" stroke-linecap="butt" stroke-miterlimit="10"></path><path d="M 96.5 343.3259 L 98.5 343.3259 L 98.5 346.5573 L 96.5 346.5573 Z M 97.5 339.4584 L 97.5 343.3259 M 97.5 360.4733 L 97.5 346.5573" fill="rgb(236,0,0)" fill-opacity="0.3" stroke="rgb(236,0,0)" stroke-width="1" paint-order="fill" stroke-opacity="1" stroke-dasharray="none" stroke-linecap="butt" stroke-miterlimit="10"></path><path d="M 101.5 330.0731 L 103.5 330.0731 L 103.5 346.5573 L 101.5 346.5573 Z M 102.5 324.7978 L 102.5 330.0731 M 102.5 350.8404 L 102.5 346.5573" fill="rgb(0,218,60)" fill-opacity="0.3" stroke="rgb(0,218,60)" stroke-width="1" paint-order="fill" stroke-opacity="1" stroke-dasharray="none" stroke-linecap="butt" stroke-miterlimit="10"></path><path d="M 106.5 330.0731 L 108.5 330.0731 L 108.5 339.2073 L 106.5 339.2073 Z M 107.5 327.2915 L 107.5 330.0731 M 107.5 341.1008 L 107.5 339.2073" fill="rgb(236,0,0)" fill-opacity="0.3" stroke="rgb(236,0,0)" stroke-width="1" paint-order="fill" stroke-opacity="1" stroke-dasharray="none" stroke-linecap="butt" stroke-miterlimit="10"></path><path d="M 111.5 338.1065 L 113.5 338.1065 L 113.5 339.2073 L 111.5 339.2073 Z M 112.5 327.6432 L 112.5 338.1065 M 112.5 340.6834 L 112.5 339.2073" fill="rgb(0,218,60)" fill-opacity="0.3" stroke="rgb(0,218,60)" stroke-width="1" paint-order="fill" stroke-opacity="1" stroke-dasharray="none" stroke-linecap="butt" stroke-miterlimit="10"></path><path d="M 116.5 338.1065 L 118.5 338.1065 L 118.5 354.2966 L 116.5 354.2966 Z M 117.5 338.1065 M 117.5 367.5905 L 117.5 354.2966" fill="rgb(236,0,0)" fill-opacity="0.3" stroke="rgb(236,0,0)" stroke-width="1" paint-order="fill" stroke-opacity="1" stroke-dasharray="none" stroke-linecap="butt" stroke-miterlimit="10"></path><path d="M 121.5 352.3375 L 123.5 352.3375 L 123.5 354.2966 L 121.5 354.2966 Z M 122.5 339.4837 L 122.5 352.3375 M 122.5 380.7881 L 122.5 354.2966" fill="rgb(0,218,60)" fill-opacity="0.3" stroke="rgb(0,218,60)" stroke-width="1" paint-order="fill" stroke-opacity="1" stroke-dasharray="none" stroke-linecap="butt" stroke-miterlimit="10"></path><path d="M 126.5 348.7474 L 128.5 348.7474 L 128.5 352.3366 L 126.5 352.3366 Z M 127.5 329.5429 L 127.5 348.7474 M 127.5 373.6823 L 127.5 352.3366" fill="rgb(0,218,60)" fill-opacity="0.3" stroke="rgb(0,218,60)" stroke-width="1" paint-order="fill" stroke-opacity="1" stroke-dasharray="none" stroke-linecap="butt" stroke-miterlimit="10"></path><path d="M 131.5 347.3491 L 133.5 347.3491 L 133.5 348.7474 L 131.5 348.7474 Z M 132.5 339.9781 L 132.5 347.3491 M 132.5 364.0739 L 132.5 348.7474" fill="rgb(0,218,60)" fill-opacity="0.3" stroke="rgb(0,218,60)" stroke-width="1" paint-order="fill" stroke-opacity="1" stroke-dasharray="none" stroke-linecap="butt" stroke-miterlimit="10"></path><path d="M 136.5 327.1751 L 138.5 327.1751 L 138.5 347.3491 L 136.5 347.3491 Z M 137.5 326.875 L 137.5 327.1751 M 137.5 349.1551 L 137.5 347.3491" fill="rgb(0,218,60)" fill-opacity="0.3" stroke="rgb(0,218,60)" stroke-width="1" paint-order="fill" stroke-opacity="1" stroke-dasharray="none" stroke-linecap="butt" stroke-miterlimit="10"></path><path d="M 141.5 308.5061 L 143.5 308.5061 L 143.5 327.1751 L 141.5 327.1751 Z M 142.5 306.75 L 142.5 308.5061 M 142.5 333.5171 L 142.5 327.1751" fill="rgb(0,218,60)" fill-opacity="0.3" stroke="rgb(0,218,60)" stroke-width="1" paint-order="fill" stroke-opacity="1" stroke-dasharray="none" stroke-linecap="butt" stroke-miterlimit="10"></path><path d="M 146.5 284.3045 L 148.5 284.3045 L 148.5 308.5061 L 146.5 308.5061 Z M 147.5 282.0164 L 147.5 284.3045 M 147.5 316.6646 L 147.5 308.5061" fill="rgb(0,218,60)" fill-opacity="0.3" stroke="rgb(0,218,60)" stroke-width="1" paint-order="fill" stroke-opacity="1" stroke-dasharray="none" stroke-linecap="butt" stroke-miterlimit="10"></path><path d="M 151.5 277.5845 L 153.5 277.5845 L 153.5 284.3045 L 151.5 284.3045 Z M 152.5 266.7039 L 152.5 277.5845 M 152.5 295.8501 L 152.5 284.3045" fill="rgb(0,218,60)" fill-opacity="0.3" stroke="rgb(0,218,60)" stroke-width="1" paint-order="fill" stroke-opacity="1" stroke-dasharray="none" stroke-linecap="butt" stroke-miterlimit="10"></path><path d="M 156.5 277.5845 L 158.5 277.5845 L 158.5 278.9766 L 156.5 278.9766 Z M 157.5 274.6996 L 157.5 277.5845 M 157.5 286.3879 L 157.5 278.9766" fill="rgb(236,0,0)" fill-opacity="0.3" stroke="rgb(236,0,0)" stroke-width="1" paint-order="fill" stroke-opacity="1" stroke-dasharray="none" stroke-linecap="butt" stroke-miterlimit="10"></path><path d="M 161.5 278.9758 L 163.5 278.9758 L 163.5 293.2733 L 161.5 293.2733 Z M 162.5 275.6875 L 162.5 278.9758 M 162.5 295.0329 L 162.5 293.2733" fill="rgb(236,0,0)" fill-opacity="0.3" stroke="rgb(236,0,0)" stroke-width="1" paint-order="fill" stroke-opacity="1" stroke-dasharray="none" stroke-linecap="butt" stroke-miterlimit="10"></path><path d="M 166.5 290.6036 L 168.5 290.6036 L 168.5 293.2741 L 166.5 293.2741 Z M 167.5 281.8046 L 167.5 290.6036 M 167.5 294.052 L 167.5 293.2741" fill="rgb(0,218,60)" fill-opacity="0.3" stroke="rgb(0,218,60)" stroke-width="1" paint-order="fill" stroke-opacity="1" stroke-dasharray="none" stroke-linecap="butt" stroke-miterlimit="10"></path><path d="M 171.5 289.9115 L 173.5 289.9115 L 173.5 290.6027 L 171.5 290.6027 Z M 172.5 284.4384 L 172.5 289.9115 M 172.5 298.175 L 172.5 290.6027" fill="rgb(0,218,60)" fill-opacity="0.3" stroke="rgb(0,218,60)" stroke-width="1" paint-order="fill" stroke-opacity="1" stroke-dasharray="none" stroke-linecap="butt" stroke-miterlimit="10"></path><path d="M 176.5 279.9015 L 178.5 279.9015 L 178.5 289.9124 L 176.5 289.9124 Z M 177.5 278.8777 L 177.5 279.9015 M 177.5 290.8941 L 177.5 289.9124" fill="rgb(0,218,60)" fill-opacity="0.3" stroke="rgb(0,218,60)" stroke-width="1" paint-order="fill" stroke-opacity="1" stroke-dasharray="none" stroke-linecap="butt" stroke-miterlimit="10"></path><path d="M 181.5 252.5009 L 183.5 252.5009 L 183.5 279.9024 L 181.5 279.9024 Z M 182.5 252.5 L 182.5 252.5009 M 182.5 282.5781 L 182.5 279.9024" fill="rgb(0,218,60)" fill-opacity="0.3" stroke="rgb(0,218,60)" stroke-width="1" paint-order="fill" stroke-opacity="1" stroke-dasharray="none" stroke-linecap="butt" stroke-miterlimit="10"></path><path d="M 186.5 252.5009 L 188.5 252.5009 L 188.5 257.7745 L 186.5 257.7745 Z M 187.5 235 L 187.5 252.5009 M 187.5 264.75 L 187.5 257.7745" fill="rgb(236,0,0)" fill-opacity="0.3" stroke="rgb(236,0,0)" stroke-width="1" paint-order="fill" stroke-opacity="1" stroke-dasharray="none" stroke-linecap="butt" stroke-miterlimit="10"></path><path d="M 191.5 224.9384 L 193.5 224.9384 L 193.5 257.7736 L 191.5 257.7736 Z M 192.5 221.0052 L 192.5 224.9384 M 192.5 258.905 L 192.5 257.7736" fill="rgb(0,218,60)" fill-opacity="0.3" stroke="rgb(0,218,60)" stroke-width="1" paint-order="fill" stroke-opacity="1" stroke-dasharray="none" stroke-linecap="butt" stroke-miterlimit="10"></path><path d="M 196.5 200.1636 L 198.5 200.1636 L 198.5 224.9384 L 196.5 224.9384 Z M 197.5 190.3172 L 197.5 200.1636 M 197.5 227.6421 L 197.5 224.9384" fill="rgb(0,218,60)" fill-opacity="0.3" stroke="rgb(0,218,60)" stroke-width="1" paint-order="fill" stroke-opacity="1" stroke-dasharray="none" stroke-linecap="butt" stroke-miterlimit="10"></path><path d="M 201.5 190.6296 L 203.5 190.6296 L 203.5 200.1628 L 201.5 200.1628 Z M 202.5 169.375 L 202.5 190.6296 M 202.5 212.5816 L 202.5 200.1628" fill="rgb(0,218,60)" fill-opacity="0.3" stroke="rgb(0,218,60)" stroke-width="1" paint-order="fill" stroke-opacity="1" stroke-dasharray="none" stroke-linecap="butt" stroke-miterlimit="10"></path><path d="M 206.5 188.2645 L 208.5 188.2645 L 208.5 190.8081 L 206.5 190.8081 Z M 207.5 176.375 L 207.5 188.2645 M 207.5 204.8807 L 207.5 190.8081" fill="rgb(0,218,60)" fill-opacity="0.3" stroke="rgb(0,218,60)" stroke-width="1" paint-order="fill" stroke-opacity="1" stroke-dasharray="none" stroke-linecap="butt" stroke-miterlimit="10"></path><path d="M 211.5 181.9216 L 213.5 181.9216 L 213.5 188.2645 L 211.5 188.2645 Z M 212.5 171.6465 L 212.5 181.9216 M 212.5 192.7375 L 212.5 188.2645" fill="rgb(0,218,60)" fill-opacity="0.3" stroke="rgb(0,218,60)" stroke-width="1" paint-order="fill" stroke-opacity="1" stroke-dasharray="none" stroke-linecap="butt" stroke-miterlimit="10"></path><path d="M 216.5 181.9216 L 218.5 181.9216 L 218.5 189.5 L 216.5 189.5 Z M 217.5 175.6785 L 217.5 181.9216 M 217.5 191.1616 L 217.5 189.5" fill="rgb(236,0,0)" fill-opacity="0.3" stroke="rgb(236,0,0)" stroke-width="1" paint-order="fill" stroke-opacity="1" stroke-dasharray="none" stroke-linecap="butt" stroke-miterlimit="10"></path><path d="M 221.5 189.5 L 223.5 189.5 L 223.5 194.75 L 221.5 194.75 Z M 222.5 187.3396 L 222.5 189.5 M 222.5 205.0864 L 222.5 194.75" fill="rgb(236,0,0)" fill-opacity="0.3" stroke="rgb(236,0,0)" stroke-width="1" paint-order="fill" stroke-opacity="1" stroke-dasharray="none" stroke-linecap="butt" stroke-miterlimit="10"></path><path d="M 226.5 194.75 L 228.5 194.75 L 228.5 198.3375 L 226.5 198.3375 Z M 227.5 183.424 L 227.5 194.75 M 227.5 199.4689 L 227.5 198.3375" fill="rgb(236,0,0)" fill-opacity="0.3" stroke="rgb(236,0,0)" stroke-width="1" paint-order="fill" stroke-opacity="1" stroke-dasharray="none" stroke-linecap="butt" stroke-miterlimit="10"></path><path d="M 231.5 198.3384 L 233.5 198.3384 L 233.5 204.4581 L 231.5 204.4581 Z M 232.5 191.25 L 232.5 198.3384 M 232.5 208.2976 L 232.5 204.4581" fill="rgb(236,0,0)" fill-opacity="0.3" stroke="rgb(236,0,0)" stroke-width="1" paint-order="fill" stroke-opacity="1" stroke-dasharray="none" stroke-linecap="butt" stroke-miterlimit="10"></path><path d="M 236.5 204.459 L 238.5 204.459 L 238.5 205.0041 L 236.5 205.0041 Z M 237.5 195.1788 L 237.5 204.459 M 237.5 222.5006 L 237.5 205.0041" fill="rgb(236,0,0)" fill-opacity="0.3" stroke="rgb(236,0,0)" stroke-width="1" paint-order="fill" stroke-opacity="1" stroke-dasharray="none" stroke-linecap="butt" stroke-miterlimit="10"></path><path d="M 241.5 188.7186 L 243.5 188.7186 L 243.5 205.0041 L 241.5 205.0041 Z M 242.5 186.875 L 242.5 188.7186 M 242.5 209.6189 L 242.5 205.0041" fill="rgb(0,218,60)" fill-opacity="0.3" stroke="rgb(0,218,60)" stroke-width="1" paint-order="fill" stroke-opacity="1" stroke-dasharray="none" stroke-linecap="butt" stroke-miterlimit="10"></path><path d="M 246.5 179.8269 L 248.5 179.8269 L 248.5 188.723 L 246.5 188.723 Z M 247.5 167.0554 L 247.5 179.8269 M 247.5 188.884 L 247.5 188.723" fill="rgb(0,218,60)" fill-opacity="0.3" stroke="rgb(0,218,60)" stroke-width="1" paint-order="fill" stroke-opacity="1" stroke-dasharray="none" stroke-linecap="butt" stroke-miterlimit="10"></path><path d="M 251.5 179.826 L 253.5 179.826 L 253.5 187.6485 L 251.5 187.6485 Z M 252.5 177.3909 L 252.5 179.826 M 252.5 194.3195 L 252.5 187.6485" fill="rgb(236,0,0)" fill-opacity="0.3" stroke="rgb(236,0,0)" stroke-width="1" paint-order="fill" stroke-opacity="1" stroke-dasharray="none" stroke-linecap="butt" stroke-miterlimit="10"></path><path d="M 256.5 175.4134 L 258.5 175.4134 L 258.5 187.6485 L 256.5 187.6485 Z M 257.5 173.1419 L 257.5 175.4134 M 257.5 188.7536 L 257.5 187.6485" fill="rgb(0,218,60)" fill-opacity="0.3" stroke="rgb(0,218,60)" stroke-width="1" paint-order="fill" stroke-opacity="1" stroke-dasharray="none" stroke-linecap="butt" stroke-miterlimit="10"></path><path d="M 261.5 175.4125 L 263.5 175.4125 L 263.5 175.6199 L 261.5 175.6199 Z M 262.5 173.75 L 262.5 175.4125 M 262.5 184.3112 L 262.5 175.6199" fill="rgb(236,0,0)" fill-opacity="0.3" stroke="rgb(236,0,0)" stroke-width="1" paint-order="fill" stroke-opacity="1" stroke-dasharray="none" stroke-linecap="butt" stroke-miterlimit="10"></path><path d="M 266.5 167.1866 L 268.5 167.1866 L 268.5 175.6199 L 266.5 175.6199 Z M 267.5 151.875 L 267.5 167.1866 M 267.5 177.25 L 267.5 175.6199" fill="rgb(0,218,60)" fill-opacity="0.3" stroke="rgb(0,218,60)" stroke-width="1" paint-order="fill" stroke-opacity="1" stroke-dasharray="none" stroke-linecap="butt" stroke-miterlimit="10"></path><path d="M 271.5 167.1866 L 273.5 167.1866 L 273.5 175.6995 L 271.5 175.6995 Z M 272.5 163.5414 L 272.5 167.1866 M 272.5 186 L 272.5 175.6995" fill="rgb(236,0,0)" fill-opacity="0.3" stroke="rgb(236,0,0)" stroke-width="1" paint-order="fill" stroke-opacity="1" stroke-dasharray="none" stroke-linecap="butt" stroke-miterlimit="10"></path><path d="M 276.5 170.7391 L 278.5 170.7391 L 278.5 175.6986 L 276.5 175.6986 Z M 277.5 143.2125 L 277.5 170.7391 M 277.5 175.9909 L 277.5 175.6986" fill="rgb(0,218,60)" fill-opacity="0.3" stroke="rgb(0,218,60)" stroke-width="1" paint-order="fill" stroke-opacity="1" stroke-dasharray="none" stroke-linecap="butt" stroke-miterlimit="10"></path><path d="M 281.5 165.896 L 283.5 165.896 L 283.5 170.7391 L 281.5 170.7391 Z M 282.5 164.349 L 282.5 165.896 M 282.5 182.0494 L 282.5 170.7391" fill="rgb(0,218,60)" fill-opacity="0.3" stroke="rgb(0,218,60)" stroke-width="1" paint-order="fill" stroke-opacity="1" stroke-dasharray="none" stroke-linecap="butt" stroke-miterlimit="10"></path><path d="M 286.5 165.896 L 288.5 165.896 L 288.5 176.5517 L 286.5 176.5517 Z M 287.5 158.0044 L 287.5 165.896 M 287.5 181.4386 L 287.5 176.5517" fill="rgb(236,0,0)" fill-opacity="0.3" stroke="rgb(236,0,0)" stroke-width="1" paint-order="fill" stroke-opacity="1" stroke-dasharray="none" stroke-linecap="butt" stroke-miterlimit="10"></path><path d="M 291.5 176.5517 L 293.5 176.5517 L 293.5 201.6599 L 291.5 201.6599 Z M 292.5 170.3603 L 292.5 176.5517 M 292.5 207.9922 L 292.5 201.6599" fill="rgb(236,0,0)" fill-opacity="0.3" stroke="rgb(236,0,0)" stroke-width="1" paint-order="fill" stroke-opacity="1" stroke-dasharray="none" stroke-linecap="butt" stroke-miterlimit="10"></path><path d="M 296.5 198.5746 L 298.5 198.5746 L 298.5 201.6599 L 296.5 201.6599 Z M 297.5 180.6196 L 297.5 198.5746 M 297.5 201.6608 L 297.5 201.6599" fill="rgb(0,218,60)" fill-opacity="0.3" stroke="rgb(0,218,60)" stroke-width="1" paint-order="fill" stroke-opacity="1" stroke-dasharray="none" stroke-linecap="butt" stroke-miterlimit="10"></path><path d="M 301.5 186.4375 L 303.5 186.4375 L 303.5 198.5746 L 301.5 198.5746 Z M 302.5 182.6076 L 302.5 186.4375 M 302.5 204.6638 L 302.5 198.5746" fill="rgb(0,218,60)" fill-opacity="0.3" stroke="rgb(0,218,60)" stroke-width="1" paint-order="fill" stroke-opacity="1" stroke-dasharray="none" stroke-linecap="butt" stroke-miterlimit="10"></path><path d="M 306.5 181.7011 L 308.5 181.7011 L 308.5 186.4375 L 306.5 186.4375 Z M 307.5 172.0175 L 307.5 181.7011 M 307.5 188.6889 L 307.5 186.4375" fill="rgb(0,218,60)" fill-opacity="0.3" stroke="rgb(0,218,60)" stroke-width="1" paint-order="fill" stroke-opacity="1" stroke-dasharray="none" stroke-linecap="butt" stroke-miterlimit="10"></path><path d="M 311.5 181.7011 L 313.5 181.7011 L 313.5 185.4829 L 311.5 185.4829 Z M 312.5 169.55 L 312.5 181.7011 M 312.5 189.829 L 312.5 185.4829" fill="rgb(236,0,0)" fill-opacity="0.3" stroke="rgb(236,0,0)" stroke-width="1" paint-order="fill" stroke-opacity="1" stroke-dasharray="none" stroke-linecap="butt" stroke-miterlimit="10"></path><path d="M 316.5 185.4837 L 318.5 185.4837 L 318.5 188.4351 L 316.5 188.4351 Z M 317.5 179.0595 L 317.5 185.4837 M 317.5 195.6478 L 317.5 188.4351" fill="rgb(236,0,0)" fill-opacity="0.3" stroke="rgb(236,0,0)" stroke-width="1" paint-order="fill" stroke-opacity="1" stroke-dasharray="none" stroke-linecap="butt" stroke-miterlimit="10"></path><path d="M 321.5 188.436 L 323.5 188.436 L 323.5 191.9684 L 321.5 191.9684 Z M 322.5 179.4471 L 322.5 188.436 M 322.5 200.4384 L 322.5 191.9684" fill="rgb(236,0,0)" fill-opacity="0.3" stroke="rgb(236,0,0)" stroke-width="1" paint-order="fill" stroke-opacity="1" stroke-dasharray="none" stroke-linecap="butt" stroke-miterlimit="10"></path><path d="M 326.5 191.9684 L 328.5 191.9684 L 328.5 197.4826 L 326.5 197.4826 Z M 327.5 186.714 L 327.5 191.9684 M 327.5 202.9076 L 327.5 197.4826" fill="rgb(236,0,0)" fill-opacity="0.3" stroke="rgb(236,0,0)" stroke-width="1" paint-order="fill" stroke-opacity="1" stroke-dasharray="none" stroke-linecap="butt" stroke-miterlimit="10"></path><path d="M 331.5 190.8606 L 333.5 190.8606 L 333.5 197.4835 L 331.5 197.4835 Z M 332.5 188.8219 L 332.5 190.8606 M 332.5 199.9991 L 332.5 197.4835" fill="rgb(0,218,60)" fill-opacity="0.3" stroke="rgb(0,218,60)" stroke-width="1" paint-order="fill" stroke-opacity="1" stroke-dasharray="none" stroke-linecap="butt" stroke-miterlimit="10"></path><path d="M 336.5 190.8615 L 338.5 190.8615 L 338.5 202.821 L 336.5 202.821 Z M 337.5 187.288 L 337.5 190.8615 M 337.5 204.2228 L 337.5 202.821" fill="rgb(236,0,0)" fill-opacity="0.3" stroke="rgb(236,0,0)" stroke-width="1" paint-order="fill" stroke-opacity="1" stroke-dasharray="none" stroke-linecap="butt" stroke-miterlimit="10"></path><path d="M 341.5 202.8201 L 343.5 202.8201 L 343.5 219.4556 L 341.5 219.4556 Z M 342.5 189.6453 L 342.5 202.8201 M 342.5 219.9465 L 342.5 219.4556" fill="rgb(236,0,0)" fill-opacity="0.3" stroke="rgb(236,0,0)" stroke-width="1" paint-order="fill" stroke-opacity="1" stroke-dasharray="none" stroke-linecap="butt" stroke-miterlimit="10"></path><path d="M 346.5 219.4556 L 348.5 219.4556 L 348.5 231.6242 L 346.5 231.6242 Z M 347.5 206.4549 L 347.5 219.4556 M 347.5 247.0068 L 347.5 231.6242" fill="rgb(236,0,0)" fill-opacity="0.3" stroke="rgb(236,0,0)" stroke-width="1" paint-order="fill" stroke-opacity="1" stroke-dasharray="none" stroke-linecap="butt" stroke-miterlimit="10"></path><path d="M 351.5 219.1258 L 353.5 219.1258 L 353.5 231.6234 L 351.5 231.6234 Z M 352.5 211.8344 L 352.5 219.1258 M 352.5 232.8108 L 352.5 231.6234" fill="rgb(0,218,60)" fill-opacity="0.3" stroke="rgb(0,218,60)" stroke-width="1" paint-order="fill" stroke-opacity="1" stroke-dasharray="none" stroke-linecap="butt" stroke-miterlimit="10"></path><path d="M 356.5 184.0619 L 358.5 184.0619 L 358.5 219.1266 L 356.5 219.1266 Z M 357.5 177.5003 L 357.5 184.0619 M 357.5 222.3108 L 357.5 219.1266" fill="rgb(0,218,60)" fill-opacity="0.3" stroke="rgb(0,218,60)" stroke-width="1" paint-order="fill" stroke-opacity="1" stroke-dasharray="none" stroke-linecap="butt" stroke-miterlimit="10"></path><path d="M 361.5 184.1284 L 363.5 184.1284 L 363.5 199.3429 L 361.5 199.3429 Z M 362.5 183.907 L 362.5 184.1284 M 362.5 200 L 362.5 199.3429" fill="rgb(236,0,0)" fill-opacity="0.3" stroke="rgb(236,0,0)" stroke-width="1" paint-order="fill" stroke-opacity="1" stroke-dasharray="none" stroke-linecap="butt" stroke-miterlimit="10"></path><path d="M 366.5 199.4155 L 368.5 199.4155 L 368.5 213.398 L 366.5 213.398 Z M 367.5 189.941 L 367.5 199.4155 M 367.5 220.6876 L 367.5 213.398" fill="rgb(236,0,0)" fill-opacity="0.3" stroke="rgb(236,0,0)" stroke-width="1" paint-order="fill" stroke-opacity="1" stroke-dasharray="none" stroke-linecap="butt" stroke-miterlimit="10"></path><path d="M 371.5 204.8571 L 373.5 204.8571 L 373.5 213.3989 L 371.5 213.3989 Z M 372.5 195.59 L 372.5 204.8571 M 372.5 226.9211 L 372.5 213.3989" fill="rgb(0,218,60)" fill-opacity="0.3" stroke="rgb(0,218,60)" stroke-width="1" paint-order="fill" stroke-opacity="1" stroke-dasharray="none" stroke-linecap="butt" stroke-miterlimit="10"></path><path d="M 376.5 195.331 L 378.5 195.331 L 378.5 204.8563 L 376.5 204.8563 Z M 377.5 189.9358 L 377.5 195.331 M 377.5 208.6634 L 377.5 204.8563" fill="rgb(0,218,60)" fill-opacity="0.3" stroke="rgb(0,218,60)" stroke-width="1" paint-order="fill" stroke-opacity="1" stroke-dasharray="none" stroke-linecap="butt" stroke-miterlimit="10"></path><path d="M 381.5 194.5024 L 383.5 194.5024 L 383.5 195.3301 L 381.5 195.3301 Z M 382.5 187.1375 L 382.5 194.5024 M 382.5 205.2203 L 382.5 195.3301" fill="rgb(0,218,60)" fill-opacity="0.3" stroke="rgb(0,218,60)" stroke-width="1" paint-order="fill" stroke-opacity="1" stroke-dasharray="none" stroke-linecap="butt" stroke-miterlimit="10"></path><path d="M 386.5 172.9747 L 388.5 172.9747 L 388.5 194.5024 L 386.5 194.5024 Z M 387.5 172.5504 L 387.5 172.9747 M 387.5 194.5033 L 387.5 194.5024" fill="rgb(0,218,60)" fill-opacity="0.3" stroke="rgb(0,218,60)" stroke-width="1" paint-order="fill" stroke-opacity="1" stroke-dasharray="none" stroke-linecap="butt" stroke-miterlimit="10"></path><path d="M 391.5 148.5019 L 393.5 148.5019 L 393.5 172.9747 L 391.5 172.9747 Z M 392.5 147.5 L 392.5 148.5019 M 392.5 178.3726 L 392.5 172.9747" fill="rgb(0,218,60)" fill-opacity="0.3" stroke="rgb(0,218,60)" stroke-width="1" paint-order="fill" stroke-opacity="1" stroke-dasharray="none" stroke-linecap="butt" stroke-miterlimit="10"></path><path d="M 396.5 123.8759 L 398.5 123.8759 L 398.5 148.5019 L 396.5 148.5019 Z M 397.5 114.138 L 397.5 123.8759 M 397.5 162.3741 L 397.5 148.5019" fill="rgb(0,218,60)" fill-opacity="0.3" stroke="rgb(0,218,60)" stroke-width="1" paint-order="fill" stroke-opacity="1" stroke-dasharray="none" stroke-linecap="butt" stroke-miterlimit="10"></path><path d="M 401.5 123.875 L 403.5 123.875 L 403.5 128.0068 L 401.5 128.0068 Z M 402.5 109.9616 L 402.5 123.875 M 402.5 134.375 L 402.5 128.0068" fill="rgb(236,0,0)" fill-opacity="0.3" stroke="rgb(236,0,0)" stroke-width="1" paint-order="fill" stroke-opacity="1" stroke-dasharray="none" stroke-linecap="butt" stroke-miterlimit="10"></path><path d="M 406.5 128.0059 L 408.5 128.0059 L 408.5 128.8564 L 406.5 128.8564 Z M 407.5 118.3625 L 407.5 128.0059 M 407.5 146.9453 L 407.5 128.8564" fill="rgb(236,0,0)" fill-opacity="0.3" stroke="rgb(236,0,0)" stroke-width="1" paint-order="fill" stroke-opacity="1" stroke-dasharray="none" stroke-linecap="butt" stroke-miterlimit="10"></path><path d="M 411.5 113.13 L 413.5 113.13 L 413.5 128.8564 L 411.5 128.8564 Z M 412.5 105.7975 L 412.5 113.13 M 412.5 131.3116 L 412.5 128.8564" fill="rgb(0,218,60)" fill-opacity="0.3" stroke="rgb(0,218,60)" stroke-width="1" paint-order="fill" stroke-opacity="1" stroke-dasharray="none" stroke-linecap="butt" stroke-miterlimit="10"></path><path d="M 416.5 105.2112 L 418.5 105.2112 L 418.5 113.1291 L 416.5 113.1291 Z M 417.5 88.175 L 417.5 105.2112 M 417.5 121.117 L 417.5 113.1291" fill="rgb(0,218,60)" fill-opacity="0.3" stroke="rgb(0,218,60)" stroke-width="1" paint-order="fill" stroke-opacity="1" stroke-dasharray="none" stroke-linecap="butt" stroke-miterlimit="10"></path><path d="M 421.5 105.5 L 423.5 105.5 L 423.5 108.3009 L 421.5 108.3009 Z M 422.5 95 L 422.5 105.5 M 422.5 114.6875 L 422.5 108.3009" fill="rgb(236,0,0)" fill-opacity="0.3" stroke="rgb(236,0,0)" stroke-width="1" paint-order="fill" stroke-opacity="1" stroke-dasharray="none" stroke-linecap="butt" stroke-miterlimit="10"></path><path d="M 426.5 108.3009 L 428.5 108.3009 L 428.5 118.1858 L 426.5 118.1858 Z M 427.5 100.25 L 427.5 108.3009 M 427.5 122.125 L 427.5 118.1858" fill="rgb(236,0,0)" fill-opacity="0.3" stroke="rgb(236,0,0)" stroke-width="1" paint-order="fill" stroke-opacity="1" stroke-dasharray="none" stroke-linecap="butt" stroke-miterlimit="10"></path><path d="M 431.5 111.6793 L 433.5 111.6793 L 433.5 118.1858 L 431.5 118.1858 Z M 432.5 111.0239 L 432.5 111.6793 M 432.5 129.9116 L 432.5 118.1858" fill="rgb(0,218,60)" fill-opacity="0.3" stroke="rgb(0,218,60)" stroke-width="1" paint-order="fill" stroke-opacity="1" stroke-dasharray="none" stroke-linecap="butt" stroke-miterlimit="10"></path><path d="M 436.5 101.0524 L 438.5 101.0524 L 438.5 111.5261 L 436.5 111.5261 Z M 437.5 99.4021 L 437.5 101.0524 M 437.5 119.1246 L 437.5 111.5261" fill="rgb(0,218,60)" fill-opacity="0.3" stroke="rgb(0,218,60)" stroke-width="1" paint-order="fill" stroke-opacity="1" stroke-dasharray="none" stroke-linecap="butt" stroke-miterlimit="10"></path><path d="M 441.5 101.0515 L 443.5 101.0515 L 443.5 104.6092 L 441.5 104.6092 Z M 442.5 95.1767 L 442.5 101.0515 M 442.5 108.1241 L 442.5 104.6092" fill="rgb(236,0,0)" fill-opacity="0.3" stroke="rgb(236,0,0)" stroke-width="1" paint-order="fill" stroke-opacity="1" stroke-dasharray="none" stroke-linecap="butt" stroke-miterlimit="10"></path><path d="M 446.5 94.6841 L 448.5 94.6841 L 448.5 104.6101 L 446.5 104.6101 Z M 447.5 89.4639 L 447.5 94.6841 M 447.5 115.9991 L 447.5 104.6101" fill="rgb(0,218,60)" fill-opacity="0.3" stroke="rgb(0,218,60)" stroke-width="1" paint-order="fill" stroke-opacity="1" stroke-dasharray="none" stroke-linecap="butt" stroke-miterlimit="10"></path><path d="M 451.5 94.6841 L 453.5 94.6841 L 453.5 105.906 L 451.5 105.906 Z M 452.5 80.2685 L 452.5 94.6841 M 452.5 120.2927 L 452.5 105.906" fill="rgb(236,0,0)" fill-opacity="0.3" stroke="rgb(236,0,0)" stroke-width="1" paint-order="fill" stroke-opacity="1" stroke-dasharray="none" stroke-linecap="butt" stroke-miterlimit="10"></path><path d="M 456.5 105.9051 L 458.5 105.9051 L 458.5 118.4929 L 456.5 118.4929 Z M 457.5 104.3511 L 457.5 105.9051 M 457.5 127.1878 L 457.5 118.4929" fill="rgb(236,0,0)" fill-opacity="0.3" stroke="rgb(236,0,0)" stroke-width="1" paint-order="fill" stroke-opacity="1" stroke-dasharray="none" stroke-linecap="butt" stroke-miterlimit="10"></path><path d="M 461.5 118.3056 L 463.5 118.3056 L 463.5 123 L 461.5 123 Z M 462.5 113.3899 L 462.5 118.3056 M 462.5 127.1886 L 462.5 123" fill="rgb(236,0,0)" fill-opacity="0.3" stroke="rgb(236,0,0)" stroke-width="1" paint-order="fill" stroke-opacity="1" stroke-dasharray="none" stroke-linecap="butt" stroke-miterlimit="10"></path><path d="M 466.5 108.3884 L 468.5 108.3884 L 468.5 123 L 466.5 123 Z M 467.5 105.2331 L 467.5 108.3884 M 467.5 132.7414 L 467.5 123" fill="rgb(0,218,60)" fill-opacity="0.3" stroke="rgb(0,218,60)" stroke-width="1" paint-order="fill" stroke-opacity="1" stroke-dasharray="none" stroke-linecap="butt" stroke-miterlimit="10"></path><path d="M 471.5 108.3884 L 473.5 108.3884 L 473.5 108.8154 L 471.5 108.8154 Z M 472.5 98.2611 L 472.5 108.3884 M 472.5 113.6375 L 472.5 108.8154" fill="rgb(236,0,0)" fill-opacity="0.3" stroke="rgb(236,0,0)" stroke-width="1" paint-order="fill" stroke-opacity="1" stroke-dasharray="none" stroke-linecap="butt" stroke-miterlimit="10"></path><path d="M 476.5 108.8154 L 478.5 108.8154 L 478.5 110.4411 L 476.5 110.4411 Z M 477.5 107.7479 L 477.5 108.8154 M 477.5 118.7283 L 477.5 110.4411" fill="rgb(236,0,0)" fill-opacity="0.3" stroke="rgb(236,0,0)" stroke-width="1" paint-order="fill" stroke-opacity="1" stroke-dasharray="none" stroke-linecap="butt" stroke-miterlimit="10"></path><path d="M 481.5 110.4411 L 483.5 110.4411 L 483.5 110.8384 L 481.5 110.8384 Z M 482.5 107.9867 L 482.5 110.4411 M 482.5 124.8226 L 482.5 110.8384" fill="rgb(236,0,0)" fill-opacity="0.3" stroke="rgb(236,0,0)" stroke-width="1" paint-order="fill" stroke-opacity="1" stroke-dasharray="none" stroke-linecap="butt" stroke-miterlimit="10"></path><path d="M 486.5 109.4786 L 488.5 109.4786 L 488.5 110.8384 L 486.5 110.8384 Z M 487.5 97.3853 L 487.5 109.4786 M 487.5 121.1345 L 487.5 110.8384" fill="rgb(0,218,60)" fill-opacity="0.3" stroke="rgb(0,218,60)" stroke-width="1" paint-order="fill" stroke-opacity="1" stroke-dasharray="none" stroke-linecap="butt" stroke-miterlimit="10"></path><path d="M 491.5 105.4991 L 493.5 105.4991 L 493.5 109.4777 L 491.5 109.4777 Z M 492.5 102.0009 L 492.5 105.4991 M 492.5 129.9125 L 492.5 109.4777" fill="rgb(0,218,60)" fill-opacity="0.3" stroke="rgb(0,218,60)" stroke-width="1" paint-order="fill" stroke-opacity="1" stroke-dasharray="none" stroke-linecap="butt" stroke-miterlimit="10"></path><path d="M 496.5 105.4983 L 498.5 105.4983 L 498.5 119.64 L 496.5 119.64 Z M 497.5 105.0616 L 497.5 105.4983 M 497.5 121.25 L 497.5 119.64" fill="rgb(236,0,0)" fill-opacity="0.3" stroke="rgb(236,0,0)" stroke-width="1" paint-order="fill" stroke-opacity="1" stroke-dasharray="none" stroke-linecap="butt" stroke-miterlimit="10"></path><path d="M 501.5 117.4647 L 503.5 117.4647 L 503.5 119.6391 L 501.5 119.6391 Z M 502.5 108.125 L 502.5 117.4647 M 502.5 119.9375 L 502.5 119.6391" fill="rgb(0,218,60)" fill-opacity="0.3" stroke="rgb(0,218,60)" stroke-width="1" paint-order="fill" stroke-opacity="1" stroke-dasharray="none" stroke-linecap="butt" stroke-miterlimit="10"></path><path d="M 506.5 103.7535 L 508.5 103.7535 L 508.5 117.4647 L 506.5 117.4647 Z M 507.5 102.2853 L 507.5 103.7535 M 507.5 118.4369 L 507.5 117.4647" fill="rgb(0,218,60)" fill-opacity="0.3" stroke="rgb(0,218,60)" stroke-width="1" paint-order="fill" stroke-opacity="1" stroke-dasharray="none" stroke-linecap="butt" stroke-miterlimit="10"></path><path d="M 511.5 97.0073 L 513.5 97.0073 L 513.5 103.7526 L 511.5 103.7526 Z M 512.5 90.3362 L 512.5 97.0073 M 512.5 105.4554 L 512.5 103.7526" fill="rgb(0,218,60)" fill-opacity="0.3" stroke="rgb(0,218,60)" stroke-width="1" paint-order="fill" stroke-opacity="1" stroke-dasharray="none" stroke-linecap="butt" stroke-miterlimit="10"></path><path d="M 516.5 84.4108 L 518.5 84.4108 L 518.5 97.0064 L 516.5 97.0064 Z M 517.5 79.4416 L 517.5 84.4108 M 517.5 101.4689 L 517.5 97.0064" fill="rgb(0,218,60)" fill-opacity="0.3" stroke="rgb(0,218,60)" stroke-width="1" paint-order="fill" stroke-opacity="1" stroke-dasharray="none" stroke-linecap="butt" stroke-miterlimit="10"></path><path d="M 521.5 84.4099 L 523.5 84.4099 L 523.5 104.7711 L 521.5 104.7711 Z M 522.5 74.084 L 522.5 84.4099 M 522.5 107.5624 L 522.5 104.7711" fill="rgb(236,0,0)" fill-opacity="0.3" stroke="rgb(236,0,0)" stroke-width="1" paint-order="fill" stroke-opacity="1" stroke-dasharray="none" stroke-linecap="butt" stroke-miterlimit="10"></path><path d="M 526.5 104.7711 L 528.5 104.7711 L 528.5 150.8801 L 526.5 150.8801 Z M 527.5 103.1515 L 527.5 104.7711 M 527.5 165 L 527.5 150.8801" fill="rgb(236,0,0)" fill-opacity="0.3" stroke="rgb(236,0,0)" stroke-width="1" paint-order="fill" stroke-opacity="1" stroke-dasharray="none" stroke-linecap="butt" stroke-miterlimit="10"></path><path d="M 531.5 120.1475 L 533.5 120.1475 L 533.5 150.657 L 531.5 150.657 Z M 532.5 120.1475 M 532.5 156.25 L 532.5 150.657" fill="rgb(0,218,60)" fill-opacity="0.3" stroke="rgb(0,218,60)" stroke-width="1" paint-order="fill" stroke-opacity="1" stroke-dasharray="none" stroke-linecap="butt" stroke-miterlimit="10"></path><path d="M 536.5 120.1484 L 538.5 120.1484 L 538.5 125.0983 L 536.5 125.0983 Z M 537.5 110.3142 L 537.5 120.1484 M 537.5 131.6511 L 537.5 125.0983" fill="rgb(236,0,0)" fill-opacity="0.3" stroke="rgb(236,0,0)" stroke-width="1" paint-order="fill" stroke-opacity="1" stroke-dasharray="none" stroke-linecap="butt" stroke-miterlimit="10"></path><path d="M -149 -5 L 149 -5 L 149 41 L -149 41 L -149 -5 Z" fill="rgb(0,0,0)" fill-opacity="0" stroke="#ccc" stroke-width="0" paint-order="fill" stroke-opacity="1" stroke-dasharray="none" stroke-linecap="butt" stroke-miterlimit="10" transform="matrix(1,0,0,1,300,5)"></path><text xml:space="preserve" style="font: sans-serif 18px normal normal bold 18px;" fill="#464646" fill-opacity="1" stroke="none" transform="matrix(1,0,0,1,300,5)" dominant-baseline="central" text-anchor="middle" x="0" y="18">Binance BTC/USDT</text></g></svg>